<svg xmlns="http://www.w3.org/2000/svg" width="1920" height="600"><path d="M-112,-277L-62,-272L934,-271Z" fill="#b56211" stroke="#b56211" stroke-width="1.51"/><path d="M-62,-272L296,-234L934,-271Z" fill="#c17328" stroke="#c17328" stroke-width="1.51"/><path d="M1047,843L736,848L1292,866Z" fill="#957ba9" stroke="#957ba9" stroke-width="1.51"/><path d="M736,848L547,865L1292,866Z" fill="#9a789c" stroke="#9a789c" stroke-width="1.51"/><path d="M-112,-277L934,-271L1626,-272Z" fill="#c7926a" stroke="#c7926a" stroke-width="1.51"/><path d="M1144,-236L1289,-226L1626,-272Z" fill="#b68172" stroke="#b68172" stroke-width="1.51"/><path d="M934,-271L1144,-236L1626,-272Z" fill="#bb8a76" stroke="#bb8a76" stroke-width="1.51"/><path d="M1820,776L1458,862L1988,827Z" fill="#5d3b89" stroke="#5d3b89" stroke-width="1.51"/><path d="M1988,827L1458,862L2030,841Z" fill="#532d7e" stroke="#532d7e" stroke-width="1.51"/><path d="M2061,81L1979,122L2101,268Z" fill="#a17189" stroke="#a17189" stroke-width="1.51"/><path d="M1925,683L2089,697L2115,496Z" fill="#684b8f" stroke="#684b8f" stroke-width="1.51"/><path d="M1922,486L1925,683L2115,496Z" fill="#7b5fa1" stroke="#7b5fa1" stroke-width="1.51"/><path d="M2101,268L2090,412L2115,496Z" fill="#8a71a1" stroke="#8a71a1" stroke-width="1.51"/><path d="M1915,-235L2052,-67L2136,-206Z" fill="#843645" stroke="#843645" stroke-width="1.51"/><path d="M2061,81L2101,268L2136,-206Z" fill="#9b5a61" stroke="#9b5a61" stroke-width="1.51"/><path d="M2052,-67L2061,81L2136,-206Z" fill="#924448" stroke="#924448" stroke-width="1.51"/><path d="M2101,268L2115,496L2136,-206Z" fill="#997088" stroke="#997088" stroke-width="1.51"/><path d="M1988,827L2030,841L2089,697Z" fill="#491c77" stroke="#491c77" stroke-width="1.51"/><path d="M1979,122L1940,246L2101,268Z" fill="#a37c9d" stroke="#a37c9d" stroke-width="1.51"/><path d="M1946,406L2090,412L2101,268Z" fill="#9379ab" stroke="#9379ab" stroke-width="1.51"/><path d="M1940,246L1946,406L2101,268Z" fill="#9f84b4" stroke="#9f84b4" stroke-width="1.51"/><path d="M2090,412L1922,486L2115,496Z" fill="#856ba4" stroke="#856ba4" stroke-width="1.51"/><path d="M1946,406L1922,486L2090,412Z" fill="#8f76af" stroke="#8f76af" stroke-width="1.51"/><path d="M1915,-235L1937,-60L2052,-67Z" fill="#944351" stroke="#944351" stroke-width="1.51"/><path d="M2052,-67L1937,-60L2061,81Z" fill="#9e535b" stroke="#9e535b" stroke-width="1.51"/><path d="M1925,683L1988,827L2089,697Z" fill="#563084" stroke="#563084" stroke-width="1.51"/><path d="M1620,772L1458,862L1820,776Z" fill="#6c4f97" stroke="#6c4f97" stroke-width="1.51"/><path d="M1937,-60L1979,122L2061,81Z" fill="#a6636f" stroke="#a6636f" stroke-width="1.51"/><path d="M1626,-272L1816,-206L1915,-235Z" fill="#8f4d57" stroke="#8f4d57" stroke-width="1.51"/><path d="M1937,-60L1809,25L1979,122Z" fill="#ae6774" stroke="#ae6774" stroke-width="1.51"/><path d="M1925,683L1820,776L1988,827Z" fill="#592f8b" stroke="#592f8b" stroke-width="1.51"/><path d="M1922,486L1781,654L1925,683Z" fill="#7a60a5" stroke="#7a60a5" stroke-width="1.51"/><path d="M1915,-235L1816,-206L1937,-60Z" fill="#944455" stroke="#944455" stroke-width="1.51"/><path d="M1772,220L1940,246L1979,122Z" fill="#ae86a7" stroke="#ae86a7" stroke-width="1.51"/><path d="M1809,25L1772,220L1979,122Z" fill="#b48293" stroke="#b48293" stroke-width="1.51"/><path d="M1743,560L1781,654L1922,486Z" fill="#8873b0" stroke="#8873b0" stroke-width="1.51"/><path d="M1816,-206L1777,-79L1937,-60Z" fill="#a2555c" stroke="#a2555c" stroke-width="1.51"/><path d="M1772,220L1772,380L1940,246Z" fill="#b099c2" stroke="#b099c2" stroke-width="1.51"/><path d="M1940,246L1772,380L1946,406Z" fill="#a58cc0" stroke="#a58cc0" stroke-width="1.51"/><path d="M1772,380L1922,486L1946,406Z" fill="#9b84bc" stroke="#9b84bc" stroke-width="1.51"/><path d="M1777,-79L1809,25L1937,-60Z" fill="#ae6466" stroke="#ae6466" stroke-width="1.51"/><path d="M1781,654L1820,776L1925,683Z" fill="#6a4c9a" stroke="#6a4c9a" stroke-width="1.51"/><path d="M1772,380L1743,560L1922,486Z" fill="#9885bb" stroke="#9885bb" stroke-width="1.51"/><path d="M1670,261L1667,334L1772,380Z" fill="#b6accf" stroke="#b6accf" stroke-width="1.51"/><path d="M1670,261L1772,380L1772,220Z" fill="#b7a8c9" stroke="#b7a8c9" stroke-width="1.51"/><path d="M1583,101L1772,220L1809,25Z" fill="#c0969a" stroke="#c0969a" stroke-width="1.51"/><path d="M1680,-92L1777,-79L1816,-206Z" fill="#a86260" stroke="#a86260" stroke-width="1.51"/><path d="M1781,654L1620,772L1820,776Z" fill="#6e539d" stroke="#6e539d" stroke-width="1.51"/><path d="M1626,-272L1680,-92L1816,-206Z" fill="#a05f5f" stroke="#a05f5f" stroke-width="1.51"/><path d="M1649,543L1743,560L1772,380Z" fill="#9d91c1" stroke="#9d91c1" stroke-width="1.51"/><path d="M1777,-79L1680,-92L1809,25Z" fill="#b57069" stroke="#b57069" stroke-width="1.51"/><path d="M1680,-92L1583,101L1809,25Z" fill="#c0887d" stroke="#c0887d" stroke-width="1.51"/><path d="M1667,334L1649,543L1772,380Z" fill="#aaa3ca" stroke="#aaa3ca" stroke-width="1.51"/><path d="M1583,101L1670,261L1772,220Z" fill="#c1aab7" stroke="#c1aab7" stroke-width="1.51"/><path d="M1743,560L1586,648L1781,654Z" fill="#8678b0" stroke="#8678b0" stroke-width="1.51"/><path d="M1586,648L1620,772L1781,654Z" fill="#7d6ba9" stroke="#7d6ba9" stroke-width="1.51"/><path d="M1649,543L1586,648L1743,560Z" fill="#9287b9" stroke="#9287b9" stroke-width="1.51"/><path d="M1289,-226L1442,-180L1626,-272Z" fill="#b27a6e" stroke="#b27a6e" stroke-width="1.51"/><path d="M1450,386L1509,553L1649,543Z" fill="#afa8cf" stroke="#afa8cf" stroke-width="1.51"/><path d="M1450,386L1649,543L1667,334Z" fill="#b5b0d2" stroke="#b5b0d2" stroke-width="1.51"/><path d="M1583,101L1508,236L1670,261Z" fill="#c9b5be" stroke="#c9b5be" stroke-width="1.51"/><path d="M1442,-105L1583,101L1680,-92Z" fill="#c98d7a" stroke="#c98d7a" stroke-width="1.51"/><path d="M1626,-272L1442,-180L1680,-92Z" fill="#ae7067" stroke="#ae7067" stroke-width="1.51"/><path d="M1442,-180L1442,-105L1680,-92Z" fill="#bf8170" stroke="#bf8170" stroke-width="1.51"/><path d="M1508,236L1667,334L1670,261Z" fill="#c3b9d0" stroke="#c3b9d0" stroke-width="1.51"/><path d="M1508,236L1450,386L1667,334Z" fill="#c7c1db" stroke="#c7c1db" stroke-width="1.51"/><path d="M1509,553L1586,648L1649,543Z" fill="#9a90c0" stroke="#9a90c0" stroke-width="1.51"/><path d="M175,832L-36,858L547,865Z" fill="#94454a" stroke="#94454a" stroke-width="1.51"/><path d="M1442,-105L1470,123L1583,101Z" fill="#d7a593" stroke="#d7a593" stroke-width="1.51"/><path d="M1586,648L1504,663L1620,772Z" fill="#8675af" stroke="#8675af" stroke-width="1.51"/><path d="M1504,663L1458,862L1620,772Z" fill="#7e63a8" stroke="#7e63a8" stroke-width="1.51"/><path d="M1470,123L1508,236L1583,101Z" fill="#d3b7b6" stroke="#d3b7b6" stroke-width="1.51"/><path d="M1509,553L1504,663L1586,648Z" fill="#978dbd" stroke="#978dbd" stroke-width="1.51"/><path d="M1442,-105L1282,33L1470,123Z" fill="#deac92" stroke="#deac92" stroke-width="1.51"/><path d="M1303,668L1458,862L1504,663Z" fill="#8e7ab5" stroke="#8e7ab5" stroke-width="1.51"/><path d="M1348,346L1450,386L1508,236Z" fill="#d2cee4" stroke="#d2cee4" stroke-width="1.51"/><path d="M1470,123L1288,245L1508,236Z" fill="#dac9cb" stroke="#dac9cb" stroke-width="1.51"/><path d="M1450,386L1285,560L1509,553Z" fill="#bbb5d8" stroke="#bbb5d8" stroke-width="1.51"/><path d="M1303,668L1504,663L1509,553Z" fill="#9f96c4" stroke="#9f96c4" stroke-width="1.51"/><path d="M1285,560L1303,668L1509,553Z" fill="#ada5cd" stroke="#ada5cd" stroke-width="1.51"/><path d="M1288,245L1348,346L1508,236Z" fill="#dad4e1" stroke="#dad4e1" stroke-width="1.51"/><path d="M1335,-115L1282,33L1442,-105Z" fill="#da9e7e" stroke="#da9e7e" stroke-width="1.51"/><path d="M1348,346L1285,560L1450,386Z" fill="#c9c8e1" stroke="#c9c8e1" stroke-width="1.51"/><path d="M1303,668L1292,866L1458,862Z" fill="#886dac" stroke="#886dac" stroke-width="1.51"/><path d="M1282,33L1288,245L1470,123Z" fill="#e3c6ba" stroke="#e3c6ba" stroke-width="1.51"/><path d="M1442,-180L1335,-115L1442,-105Z" fill="#c98c76" stroke="#c98c76" stroke-width="1.51"/><path d="M1289,-226L1335,-115L1442,-180Z" fill="#c58a75" stroke="#c58a75" stroke-width="1.51"/><path d="M1207,328L1132,475L1285,560Z" fill="#d2d2e7" stroke="#d2d2e7" stroke-width="1.51"/><path d="M1224,773L1292,866L1303,668Z" fill="#937bb7" stroke="#937bb7" stroke-width="1.51"/><path d="M1288,245L1207,328L1348,346Z" fill="#e0dfed" stroke="#e0dfed" stroke-width="1.51"/><path d="M1207,328L1285,560L1348,346Z" fill="#d2d3e8" stroke="#d2d3e8" stroke-width="1.51"/><path d="M296,-234L606,-182L934,-271Z" fill="#d08b4d" stroke="#d08b4d" stroke-width="1.51"/><path d="M1282,33L1171,33L1288,245Z" fill="#eccbb4" stroke="#eccbb4" stroke-width="1.51"/><path d="M1219,274L1207,328L1288,245Z" fill="#e6e3ea" stroke="#e6e3ea" stroke-width="1.51"/><path d="M1289,-226L1133,-66L1335,-115Z" fill="#d59b7d" stroke="#d59b7d" stroke-width="1.51"/><path d="M1133,-66L1282,33L1335,-115Z" fill="#e4ab86" stroke="#e4ab86" stroke-width="1.51"/><path d="M1133,-66L1171,33L1282,33Z" fill="#ecbc96" stroke="#ecbc96" stroke-width="1.51"/><path d="M1171,33L1219,274L1288,245Z" fill="#ebdbd0" stroke="#ebdbd0" stroke-width="1.51"/><path d="M1144,-236L1133,-66L1289,-226Z" fill="#d2997c" stroke="#d2997c" stroke-width="1.51"/><path d="M1285,560L1195,718L1303,668Z" fill="#a9a2ca" stroke="#a9a2ca" stroke-width="1.51"/><path d="M1195,718L1224,773L1303,668Z" fill="#9f8ec0" stroke="#9f8ec0" stroke-width="1.51"/><path d="M1224,773L1047,843L1292,866Z" fill="#9076ac" stroke="#9076ac" stroke-width="1.51"/><path d="M1132,475L1195,718L1285,560Z" fill="#bbb7d7" stroke="#bbb7d7" stroke-width="1.51"/><path d="M1171,33L1059,73L1219,274Z" fill="#f2d7c0" stroke="#f2d7c0" stroke-width="1.51"/><path d="M296,-234L459,-189L606,-182Z" fill="#d28233" stroke="#d28233" stroke-width="1.51"/><path d="M1132,475L1025,560L1195,718Z" fill="#c1bcd9" stroke="#c1bcd9" stroke-width="1.51"/><path d="M1041,378L1132,475L1207,328Z" fill="#e0e1ef" stroke="#e0e1ef" stroke-width="1.51"/><path d="M1059,73L1036,269L1219,274Z" fill="#f1e5da" stroke="#f1e5da" stroke-width="1.51"/><path d="M1195,718L1047,843L1224,773Z" fill="#9b81bb" stroke="#9b81bb" stroke-width="1.51"/><path d="M1036,269L1207,328L1219,274Z" fill="#ebeaf0" stroke="#ebeaf0" stroke-width="1.51"/><path d="M1025,560L999,729L1195,718Z" fill="#b2a9cd" stroke="#b2a9cd" stroke-width="1.51"/><path d="M1036,269L1041,378L1207,328Z" fill="#ebecf3" stroke="#ebecf3" stroke-width="1.51"/><path d="M606,-182L755,-196L934,-271Z" fill="#d59865" stroke="#d59865" stroke-width="1.51"/><path d="M999,729L1047,843L1195,718Z" fill="#a28abf" stroke="#a28abf" stroke-width="1.51"/><path d="M991,-184L1133,-66L1144,-236Z" fill="#dba17f" stroke="#dba17f" stroke-width="1.51"/><path d="M1133,-66L1059,73L1171,33Z" fill="#f2c39c" stroke="#f2c39c" stroke-width="1.51"/><path d="M877,797L736,848L1047,843Z" fill="#a07fa8" stroke="#a07fa8" stroke-width="1.51"/><path d="M1009,-49L1059,73L1133,-66Z" fill="#f3c095" stroke="#f3c095" stroke-width="1.51"/><path d="M991,-184L1009,-49L1133,-66Z" fill="#e9af85" stroke="#e9af85" stroke-width="1.51"/><path d="M934,-271L991,-184L1144,-236Z" fill="#cf9b7d" stroke="#cf9b7d" stroke-width="1.51"/><path d="M1041,378L1025,560L1132,475Z" fill="#d8d8e9" stroke="#d8d8e9" stroke-width="1.51"/><path d="M914,351L832,482L1025,560Z" fill="#e2dde8" stroke="#e2dde8" stroke-width="1.51"/><path d="M926,26L876,276L1036,269Z" fill="#fcecd7" stroke="#fcecd7" stroke-width="1.51"/><path d="M1036,269L914,351L1041,378Z" fill="#f1f0f5" stroke="#f1f0f5" stroke-width="1.51"/><path d="M914,351L1025,560L1041,378Z" fill="#e4e4ef" stroke="#e4e4ef" stroke-width="1.51"/><path d="M926,26L1036,269L1059,73Z" fill="#fbdfc2" stroke="#fbdfc2" stroke-width="1.51"/><path d="M1009,-49L926,26L1059,73Z" fill="#faca9f" stroke="#faca9f" stroke-width="1.51"/><path d="M855,626L999,729L1025,560Z" fill="#c0b8d5" stroke="#c0b8d5" stroke-width="1.51"/><path d="M999,729L877,797L1047,843Z" fill="#a489bc" stroke="#a489bc" stroke-width="1.51"/><path d="M991,-184L878,-76L1009,-49Z" fill="#edb487" stroke="#edb487" stroke-width="1.51"/><path d="M876,276L914,351L1036,269Z" fill="#f8f6f4" stroke="#f8f6f4" stroke-width="1.51"/><path d="M832,482L855,626L1025,560Z" fill="#d2cadb" stroke="#d2cadb" stroke-width="1.51"/><path d="M878,-76L926,26L1009,-49Z" fill="#f8c18f" stroke="#f8c18f" stroke-width="1.51"/><path d="M771,231L876,276L926,26Z" fill="#fde6c7" stroke="#fde6c7" stroke-width="1.51"/><path d="M855,626L877,797L999,729Z" fill="#b39dc2" stroke="#b39dc2" stroke-width="1.51"/><path d="M934,-271L878,-76L991,-184Z" fill="#dfa57d" stroke="#dfa57d" stroke-width="1.51"/><path d="M694,92L771,231L926,26Z" fill="#ffd9aa" stroke="#ffd9aa" stroke-width="1.51"/><path d="M755,-196L878,-76L934,-271Z" fill="#dea173" stroke="#dea173" stroke-width="1.51"/><path d="M855,626L778,648L877,797Z" fill="#baa3bd" stroke="#baa3bd" stroke-width="1.51"/><path d="M755,-196L789,-80L878,-76Z" fill="#eaaa72" stroke="#eaaa72" stroke-width="1.51"/><path d="M878,-76L789,-80L926,26Z" fill="#f6bb82" stroke="#f6bb82" stroke-width="1.51"/><path d="M789,-80L694,92L926,26Z" fill="#fbc58a" stroke="#fbc58a" stroke-width="1.51"/><path d="M876,276L687,402L914,351Z" fill="#f5ebe3" stroke="#f5ebe3" stroke-width="1.51"/><path d="M687,402L832,482L914,351Z" fill="#ece2de" stroke="#ece2de" stroke-width="1.51"/><path d="M230,821L175,832L547,865Z" fill="#9b5057" stroke="#9b5057" stroke-width="1.51"/><path d="M832,482L757,500L855,626Z" fill="#d8cad2" stroke="#d8cad2" stroke-width="1.51"/><path d="M771,231L687,402L876,276Z" fill="#faedde" stroke="#faedde" stroke-width="1.51"/><path d="M778,648L736,848L877,797Z" fill="#ae89ad" stroke="#ae89ad" stroke-width="1.51"/><path d="M757,500L778,648L855,626Z" fill="#cebcc7" stroke="#cebcc7" stroke-width="1.51"/><path d="M687,402L757,500L832,482Z" fill="#e5d7d1" stroke="#e5d7d1" stroke-width="1.51"/><path d="M757,500L583,561L778,648Z" fill="#d4bdbe" stroke="#d4bdbe" stroke-width="1.51"/><path d="M608,696L736,848L778,648Z" fill="#b58fa6" stroke="#b58fa6" stroke-width="1.51"/><path d="M755,-196L604,-103L789,-80Z" fill="#e7a465" stroke="#e7a465" stroke-width="1.51"/><path d="M604,-103L694,92L789,-80Z" fill="#f7b56f" stroke="#f7b56f" stroke-width="1.51"/><path d="M544,182L687,402L771,231Z" fill="#fee4c6" stroke="#fee4c6" stroke-width="1.51"/><path d="M583,561L608,696L778,648Z" fill="#c7a8ac" stroke="#c7a8ac" stroke-width="1.51"/><path d="M606,-182L604,-103L755,-196Z" fill="#e09958" stroke="#e09958" stroke-width="1.51"/><path d="M694,92L544,182L771,231Z" fill="#ffdaa9" stroke="#ffdaa9" stroke-width="1.51"/><path d="M544,182L603,415L687,402Z" fill="#f9dec2" stroke="#f9dec2" stroke-width="1.51"/><path d="M687,402L603,415L757,500Z" fill="#ebd6c8" stroke="#ebd6c8" stroke-width="1.51"/><path d="M603,415L583,561L757,500Z" fill="#e3c9bd" stroke="#e3c9bd" stroke-width="1.51"/><path d="M608,696L547,865L736,848Z" fill="#a9758d" stroke="#a9758d" stroke-width="1.51"/><path d="M544,182L466,325L603,415Z" fill="#fedbb6" stroke="#fedbb6" stroke-width="1.51"/><path d="M604,-103L539,111L694,92Z" fill="#fcbd72" stroke="#fcbd72" stroke-width="1.51"/><path d="M539,111L544,182L694,92Z" fill="#ffcd8e" stroke="#ffcd8e" stroke-width="1.51"/><path d="M489,-111L408,76L539,111Z" fill="#f9b059" stroke="#f9b059" stroke-width="1.51"/><path d="M481,531L402,647L583,561Z" fill="#d5a898" stroke="#d5a898" stroke-width="1.51"/><path d="M481,531L583,561L603,415Z" fill="#e3bfad" stroke="#e3bfad" stroke-width="1.51"/><path d="M489,-111L539,111L604,-103Z" fill="#f4a853" stroke="#f4a853" stroke-width="1.51"/><path d="M489,-111L604,-103L606,-182Z" fill="#e4974a" stroke="#e4974a" stroke-width="1.51"/><path d="M412,773L547,865L608,696Z" fill="#b07082" stroke="#b07082" stroke-width="1.51"/><path d="M583,561L402,647L608,696Z" fill="#ca9e97" stroke="#ca9e97" stroke-width="1.51"/><path d="M402,647L412,773L608,696Z" fill="#bc8584" stroke="#bc8584" stroke-width="1.51"/><path d="M459,-189L489,-111L606,-182Z" fill="#dd8e40" stroke="#dd8e40" stroke-width="1.51"/><path d="M466,325L481,531L603,415Z" fill="#f0cbad" stroke="#f0cbad" stroke-width="1.51"/><path d="M539,111L404,179L544,182Z" fill="#ffc988" stroke="#ffc988" stroke-width="1.51"/><path d="M404,179L466,325L544,182Z" fill="#ffcf98" stroke="#ffcf98" stroke-width="1.51"/><path d="M412,773L230,821L547,865Z" fill="#a35c66" stroke="#a35c66" stroke-width="1.51"/><path d="M408,76L404,179L539,111Z" fill="#fdbf74" stroke="#fdbf74" stroke-width="1.51"/><path d="M404,179L338,256L466,325Z" fill="#fcca95" stroke="#fcca95" stroke-width="1.51"/><path d="M466,325L291,353L481,531Z" fill="#f0c39f" stroke="#f0c39f" stroke-width="1.51"/><path d="M291,353L266,494L481,531Z" fill="#e6b291" stroke="#e6b291" stroke-width="1.51"/><path d="M459,-189L265,-85L489,-111Z" fill="#dd882f" stroke="#dd882f" stroke-width="1.51"/><path d="M265,-85L408,76L489,-111Z" fill="#ec9737" stroke="#ec9737" stroke-width="1.51"/><path d="M266,494L402,647L481,531Z" fill="#d7a28c" stroke="#d7a28c" stroke-width="1.51"/><path d="M296,-234L265,-85L459,-189Z" fill="#d27a22" stroke="#d27a22" stroke-width="1.51"/><path d="M338,256L291,353L466,325Z" fill="#fac89c" stroke="#fac89c" stroke-width="1.51"/><path d="M-62,-272L80,-198L296,-234Z" fill="#b05a09" stroke="#b05a09" stroke-width="1.51"/><path d="M266,494L255,662L402,647Z" fill="#ca8f7c" stroke="#ca8f7c" stroke-width="1.51"/><path d="M264,102L404,179L408,76Z" fill="#f8b466" stroke="#f8b466" stroke-width="1.51"/><path d="M265,-85L264,102L408,76Z" fill="#f09e41" stroke="#f09e41" stroke-width="1.51"/><path d="M402,647L255,662L412,773Z" fill="#ba7b76" stroke="#ba7b76" stroke-width="1.51"/><path d="M255,662L230,821L412,773Z" fill="#ac6267" stroke="#ac6267" stroke-width="1.51"/><path d="M264,102L338,256L404,179Z" fill="#f8bb77" stroke="#f8bb77" stroke-width="1.51"/><path d="M188,220L291,353L338,256Z" fill="#f6bd88" stroke="#f6bd88" stroke-width="1.51"/><path d="M264,102L188,220L338,256Z" fill="#f5b471" stroke="#f5b471" stroke-width="1.51"/><path d="M174,686L230,821L255,662Z" fill="#ad6362" stroke="#ad6362" stroke-width="1.51"/><path d="M171,74L264,102L265,-85Z" fill="#eb9636" stroke="#eb9636" stroke-width="1.51"/><path d="M156,-90L171,74L265,-85Z" fill="#e0841e" stroke="#e0841e" stroke-width="1.51"/><path d="M174,686L255,662L266,494Z" fill="#c38470" stroke="#c38470" stroke-width="1.51"/><path d="M86,348L266,494L291,353Z" fill="#e7ad85" stroke="#e7ad85" stroke-width="1.51"/><path d="M156,-90L265,-85L296,-234Z" fill="#d1740f" stroke="#d1740f" stroke-width="1.51"/><path d="M80,-198L156,-90L296,-234Z" fill="#c4680b" stroke="#c4680b" stroke-width="1.51"/><path d="M86,497L174,686L266,494Z" fill="#ca8c76" stroke="#ca8c76" stroke-width="1.51"/><path d="M188,220L86,348L291,353Z" fill="#efb688" stroke="#efb688" stroke-width="1.51"/><path d="M171,74L188,220L264,102Z" fill="#efa658" stroke="#efa658" stroke-width="1.51"/><path d="M86,348L86,497L266,494Z" fill="#daa07f" stroke="#daa07f" stroke-width="1.51"/><path d="M174,686L175,832L230,821Z" fill="#a04e5a" stroke="#a04e5a" stroke-width="1.51"/><path d="M156,-90L9,53L171,74Z" fill="#dd862c" stroke="#dd862c" stroke-width="1.51"/><path d="M86,497L-38,581L174,686Z" fill="#bb7c6e" stroke="#bb7c6e" stroke-width="1.51"/><path d="M174,686L-47,723L175,832Z" fill="#9e515a" stroke="#9e515a" stroke-width="1.51"/><path d="M171,74L-9,184L188,220Z" fill="#e8a25f" stroke="#e8a25f" stroke-width="1.51"/><path d="M-9,184L86,348L188,220Z" fill="#e6a977" stroke="#e6a977" stroke-width="1.51"/><path d="M9,53L-9,184L171,74Z" fill="#e09349" stroke="#e09349" stroke-width="1.51"/><path d="M-38,581L-47,723L174,686Z" fill="#a76661" stroke="#a76661" stroke-width="1.51"/><path d="M-47,723L-36,858L175,832Z" fill="#8c3b4d" stroke="#8c3b4d" stroke-width="1.51"/><path d="M80,-198L0,-132L156,-90Z" fill="#c2660a" stroke="#c2660a" stroke-width="1.51"/><path d="M0,-132L9,53L156,-90Z" fill="#cf7311" stroke="#cf7311" stroke-width="1.51"/><path d="M-39,429L-38,581L86,497Z" fill="#c48974" stroke="#c48974" stroke-width="1.51"/><path d="M-39,429L86,497L86,348Z" fill="#d49b7d" stroke="#d49b7d" stroke-width="1.51"/><path d="M-9,184L-39,429L86,348Z" fill="#dea480" stroke="#dea480" stroke-width="1.51"/><path d="M-62,-272L0,-132L80,-198Z" fill="#af5607" stroke="#af5607" stroke-width="1.51"/><path d="M-150,187L-195,394L-39,429Z" fill="#cb987c" stroke="#cb987c" stroke-width="1.51"/><path d="M-150,187L-39,429L-9,184Z" fill="#d69e76" stroke="#d69e76" stroke-width="1.51"/><path d="M-161,81L-150,187L-9,184Z" fill="#cf8f55" stroke="#cf8f55" stroke-width="1.51"/><path d="M-161,81L-9,184L9,53Z" fill="#d48b47" stroke="#d48b47" stroke-width="1.51"/><path d="M0,-132L-178,-89L9,53Z" fill="#c46a0f" stroke="#c46a0f" stroke-width="1.51"/><path d="M-178,-89L-161,81L9,53Z" fill="#c77628" stroke="#c77628" stroke-width="1.51"/><path d="M-39,429L-171,506L-38,581Z" fill="#ba8272" stroke="#ba8272" stroke-width="1.51"/><path d="M-62,-272L-112,-277L0,-132Z" fill="#a24e07" stroke="#a24e07" stroke-width="1.51"/><path d="M-112,-277L-178,-89L0,-132Z" fill="#ab5407" stroke="#ab5407" stroke-width="1.51"/><path d="M-159,722L-47,723L-38,581Z" fill="#995b5d" stroke="#995b5d" stroke-width="1.51"/><path d="M-171,506L-159,722L-38,581Z" fill="#a36a66" stroke="#a36a66" stroke-width="1.51"/><path d="M-47,723L-159,722L-36,858Z" fill="#883c52" stroke="#883c52" stroke-width="1.51"/><path d="M-159,722L-201,823L-36,858Z" fill="#7c324a" stroke="#7c324a" stroke-width="1.51"/><path d="M-195,394L-171,506L-39,429Z" fill="#bd8a76" stroke="#bd8a76" stroke-width="1.51"/><path d="M-171,506L-201,823L-159,722Z" fill="#8c525a" stroke="#8c525a" stroke-width="1.51"/><path d="M-161,81L-195,394L-150,187Z" fill="#ca9368" stroke="#ca9368" stroke-width="1.51"/><path d="M-178,-89L-195,394L-161,81Z" fill="#c7864d" stroke="#c7864d" stroke-width="1.51"/><path d="M-195,394L-201,823L-171,506Z" fill="#a16d68" stroke="#a16d68" stroke-width="1.51"/></svg>